<?xml version="1.0" standalone="no"?>
<!DOCTYPE svg PUBLIC "-//W3C//DTD SVG 20010904//EN"
 "http://www.w3.org/TR/2001/REC-SVG-20010904/DTD/svg10.dtd">
<svg version="1.0" xmlns="http://www.w3.org/2000/svg"
 width="192.000000pt" height="192.000000pt" viewBox="0 0 192.000000 192.000000"
 preserveAspectRatio="xMidYMid meet">
<metadata>
Created by potrace 1.11, written by Peter Selinger 2001-2013
</metadata>
<g transform="translate(0.000000,192.000000) scale(0.100000,-0.100000)"
fill="#000000" stroke="none">
<path d="M957 1906 c-4 -9 -14 -16 -23 -16 -9 0 -29 -11 -46 -25 -16 -14 -38
-25 -48 -25 -10 0 -20 -4 -22 -9 -3 -7 -72 -48 -163 -95 -22 -12 -42 -24 -45
-27 -3 -4 -21 -13 -40 -22 -19 -8 -45 -24 -57 -36 -12 -11 -28 -21 -35 -21 -8
0 -22 -6 -33 -14 -22 -15 -33 -21 -245 -139 -19 -10 -42 -25 -51 -33 -8 -8
-21 -14 -27 -14 -9 0 -12 -118 -12 -470 0 -434 3 -495 25 -460 3 5 45 31 93
57 48 25 90 51 94 57 4 6 8 7 8 2 0 -5 8 -2 18 6 9 8 31 20 49 27 17 7 34 19
37 27 3 8 13 14 21 14 9 0 36 14 60 30 24 17 48 30 54 30 5 0 16 6 23 13 7 7
33 23 58 35 25 13 63 33 85 46 23 13 62 35 88 49 26 15 59 35 73 44 43 28 87
52 124 69 19 9 37 19 40 23 5 6 33 22 135 75 27 15 56 33 65 41 9 8 23 15 30
15 7 0 27 10 44 23 17 13 45 30 61 39 35 17 95 51 180 102 33 19 77 43 98 52
20 9 37 20 37 25 0 5 15 12 32 17 47 12 47 36 1 56 -21 9 -87 46 -148 81 -60
36 -127 72 -147 81 -21 9 -38 20 -38 24 0 5 -16 14 -35 21 -19 7 -35 16 -35
20 0 4 -8 9 -17 13 -10 3 -25 10 -33 15 -8 6 -53 32 -100 58 -47 26 -98 55
-115 65 -16 9 -46 24 -65 34 -19 9 -38 21 -41 26 -3 5 -9 3 -12 -6z"/>
<path d="M1798 1387 c-9 -9 -22 -17 -29 -17 -7 0 -27 -11 -45 -25 -18 -14 -39
-25 -46 -25 -8 0 -24 -9 -35 -19 -12 -11 -36 -27 -54 -36 -19 -8 -51 -25 -71
-38 -21 -12 -61 -35 -90 -51 -29 -16 -64 -36 -78 -46 -14 -9 -40 -22 -57 -29
-18 -8 -33 -17 -33 -22 0 -5 -12 -12 -27 -15 -16 -4 -41 -18 -56 -31 -16 -12
-37 -23 -48 -23 -10 0 -19 -4 -19 -10 0 -5 -23 -19 -50 -32 -28 -13 -53 -32
-57 -43 -8 -24 -10 -925 -2 -925 3 0 31 15 62 34 32 19 66 38 77 41 11 4 20
11 20 16 0 6 4 8 9 4 5 -3 12 -1 16 5 3 6 22 17 41 25 19 8 34 19 34 25 0 6 4
9 9 5 5 -3 12 -1 16 5 3 5 14 10 25 10 10 0 20 7 24 15 3 8 12 15 21 15 8 0
15 5 15 10 0 6 7 10 15 10 14 0 61 25 75 40 3 3 26 16 53 30 26 13 47 28 47
32 0 5 8 8 18 8 10 0 33 11 52 25 19 14 39 25 46 25 7 0 19 7 28 15 8 9 30 22
48 30 74 33 68 -10 66 510 -3 439 -4 468 -20 452z"/>
<path d="M913 887 c-13 -5 -23 -14 -23 -18 0 -4 -16 -13 -35 -19 -19 -6 -35
-15 -35 -20 0 -4 -15 -14 -32 -21 -18 -7 -61 -30 -95 -51 -35 -21 -67 -38 -72
-38 -5 0 -14 -7 -21 -15 -7 -8 -20 -15 -29 -15 -9 0 -28 -11 -43 -25 -15 -14
-33 -25 -40 -25 -6 0 -28 -10 -47 -23 -60 -38 -75 -46 -111 -65 -19 -9 -37
-19 -40 -23 -3 -3 -30 -18 -60 -33 -88 -45 -96 -57 -44 -70 14 -4 35 -16 47
-26 11 -11 29 -20 38 -20 10 0 20 -4 24 -9 5 -9 26 -21 175 -103 30 -17 57
-34 58 -39 2 -5 12 -9 23 -9 10 0 19 -5 19 -12 0 -6 3 -9 6 -5 3 3 15 -3 27
-14 11 -10 27 -19 36 -19 8 0 22 -6 30 -14 9 -8 32 -23 51 -33 19 -11 62 -35
95 -53 102 -57 117 -63 124 -52 7 11 7 869 0 876 -2 2 -14 -1 -26 -7z"/>
</g>
</svg>
